<svg width="32" height="38" viewBox="0 0 32 38" fill="none" xmlns="http://www.w3.org/2000/svg">
<path fill-rule="evenodd" clip-rule="evenodd" d="M28.2963 13.1266C28.2963 15.4291 28.9048 16.7863 30.2441 18.3502C31.259 19.5024 31.5833 20.9814 31.5833 22.586C31.5833 24.1887 31.0567 25.7102 30.0017 26.9455C28.6206 28.4264 26.6728 29.3718 24.6849 29.5361C21.8042 29.7817 18.9217 29.9885 16.0009 29.9885C13.0783 29.9885 10.1975 29.8648 7.3168 29.5361C5.3271 29.3718 3.37933 28.4264 2.00001 26.9455C0.945026 25.7102 0.416626 24.1887 0.416626 22.586C0.416626 20.9814 0.742776 19.5024 1.75585 18.3502C3.13699 16.7863 3.70548 15.4291 3.70548 13.1266V12.3455C3.70548 9.2619 4.4744 7.2456 6.0578 5.27171C8.4119 2.39307 12.1854 0.666626 15.9189 0.666626H16.0829C19.8965 0.666626 23.7921 2.47616 26.1061 5.47851C27.6075 7.4118 28.2963 9.3432 28.2963 12.3455V13.1266ZM10.635 33.7782C10.635 32.8549 11.4823 32.4321 12.2658 32.2511C13.1823 32.0573 18.767 32.0573 19.6835 32.2511C20.467 32.4321 21.3142 32.8549 21.3142 33.7782C21.2687 34.6571 20.753 35.4363 20.0406 35.9311C19.1168 36.6513 18.0327 37.1073 16.8993 37.2717C16.2725 37.3529 15.6567 37.3548 15.0518 37.2717C13.9166 37.1073 12.8325 36.6513 11.9105 35.9293C11.1962 35.4363 10.6806 34.6571 10.635 33.7782Z" fill="#080829"/>
</svg>
