<svg width="38" height="36" viewBox="0 0 38 36" fill="none" xmlns="http://www.w3.org/2000/svg">
<path fill-rule="evenodd" clip-rule="evenodd" d="M26.058 0.584643C27.2148 0.584643 28.3698 0.747813 29.468 1.11631C36.2348 3.31631 38.6731 10.7413 36.6363 17.2313C35.4813 20.5478 33.593 23.5746 31.1198 26.0478C27.5796 29.4761 23.6948 32.5195 19.513 35.1411L19.0546 35.418L18.578 35.1228C14.3815 32.5195 10.4746 29.4761 6.90146 26.0295C4.44479 23.5563 2.55462 20.5478 1.38129 17.2313C-0.690379 10.7413 1.74796 3.31631 8.5881 1.07781C9.1198 0.894483 9.668 0.766143 10.218 0.694643H10.438C10.9531 0.619483 11.4646 0.584643 11.978 0.584643H12.1796C13.3346 0.619483 14.453 0.821143 15.5365 1.18964H15.6446C15.718 1.22448 15.773 1.26298 15.8096 1.29781C16.2148 1.42798 16.598 1.57464 16.9646 1.77631L17.6613 2.08798C17.8296 2.17776 18.0186 2.31495 18.1819 2.43351C18.2854 2.50863 18.3785 2.57627 18.4496 2.61964C18.4795 2.63729 18.5099 2.65504 18.5406 2.67293C18.6978 2.7647 18.8615 2.86028 18.9996 2.96614C21.0365 1.40964 23.5096 0.566313 26.058 0.584643ZM30.9346 13.7846C31.6863 13.7645 32.328 13.1613 32.383 12.3895V12.1713C32.438 9.6028 30.8815 7.2763 28.5146 6.378C27.763 6.1195 26.938 6.5246 26.663 7.2946C26.4063 8.0646 26.8096 8.908 27.5796 9.1811C28.7548 9.6211 29.5413 10.778 29.5413 12.0595V12.1163C29.5065 12.5361 29.633 12.9413 29.8896 13.253C30.1463 13.5646 30.5313 13.7461 30.9346 13.7846Z" fill="#080829"/>
</svg>
