<svg width="42" height="30" viewBox="0 0 42 30" fill="none" xmlns="http://www.w3.org/2000/svg">
<path fill-rule="evenodd" clip-rule="evenodd" d="M28.6235 8.0936C28.6235 12.4014 25.1893 15.8555 20.9065 15.8555C16.6236 15.8555 13.1894 12.4014 13.1894 8.0936C13.1894 3.7842 16.6236 0.333374 20.9065 0.333374C25.1893 0.333374 28.6235 3.7842 28.6235 8.0936ZM20.9065 29.6667C14.616 29.6667 9.2447 28.6694 9.2447 24.6803C9.2447 20.6896 14.5815 19.656 20.9065 19.656C27.197 19.656 32.5682 20.6533 32.5682 24.644C32.5682 28.6331 27.2314 29.6667 20.9065 29.6667ZM31.9213 8.2336C31.9213 10.4296 31.2663 12.4753 30.1172 14.176C29.999 14.351 30.104 14.5871 30.3125 14.6234C30.5998 14.673 30.8969 14.701 31.199 14.7093C34.2112 14.7885 36.9149 12.8386 37.6618 9.9029C38.7682 5.5423 35.5196 1.62752 31.3828 1.62752C30.933 1.62752 30.5029 1.6754 30.0843 1.76126C30.0269 1.77446 29.9661 1.80088 29.9333 1.85207C29.8939 1.91481 29.9235 1.99902 29.9629 2.0535C31.2055 3.8053 31.9213 5.9419 31.9213 8.2336ZM36.91 17.7731C38.934 18.171 40.2654 18.9833 40.8169 20.1639C41.2831 21.1331 41.2831 22.2575 40.8169 23.2251C39.9732 25.0561 37.2531 25.6439 36.1959 25.7958C35.9776 25.8289 35.8019 25.639 35.8249 25.4194C36.365 20.3455 32.069 17.9398 30.9577 17.3867C30.91 17.362 30.9002 17.324 30.9051 17.3009C30.9084 17.2844 30.9281 17.2579 30.9642 17.253C33.3691 17.2084 35.9546 17.5386 36.91 17.7731ZM10.8013 14.7091C11.1033 14.7009 11.3988 14.6744 11.6877 14.6233C11.8962 14.5869 12.0013 14.3508 11.8831 14.1758C10.734 12.4752 10.079 10.4294 10.079 8.2335C10.079 5.9417 10.7947 3.8052 12.0374 2.05334C12.0768 1.99885 12.1047 1.91464 12.0669 1.8519C12.0341 1.80237 11.9717 1.7743 11.9159 1.76109C11.4957 1.67523 11.0656 1.62735 10.6158 1.62735C6.47903 1.62735 3.23036 5.5421 4.33842 9.9027C5.08533 12.8384 7.789 14.7884 10.8013 14.7091ZM11.0943 17.2999C11.0992 17.3246 11.0894 17.361 11.0434 17.3874C9.9304 17.9405 5.63444 20.3462 6.17452 25.4184C6.1975 25.6396 6.02349 25.8279 5.80516 25.7965C4.74799 25.6446 2.02791 25.0568 1.18414 23.2257C0.716289 22.2565 0.716289 21.1338 1.18414 20.1646C1.73571 18.984 3.06538 18.1717 5.08944 17.7721C6.04647 17.5393 8.63031 17.2091 11.0369 17.2536C11.073 17.2586 11.091 17.285 11.0943 17.2999Z" fill="#080829"/>
</svg>
